<svg width="44" height="44" viewBox="0 0 44 44" fill="none" xmlns="http://www.w3.org/2000/svg">
<rect width="44" height="44" rx="4" fill="white"/>
<path fill-rule="evenodd" clip-rule="evenodd" d="M15.4638 23.6235L18.8059 35.3892L19.9549 35.0509L16.5941 23.2424C16.5552 22.983 15.923 20.8091 15.8105 20.4484C14.6951 16.8715 11.4788 17.7976 9.4444 20.1312C8.87844 19.6362 8.3561 19.0678 7.76035 18.5516C7.25314 18.112 6.29991 17.5563 5.91402 17.1465C5.35127 16.549 5.42581 15.548 5.32297 14.8204C5.22945 14.1586 5.22433 14.1086 5.74491 13.8505C6.12118 13.6639 6.43297 13.4535 6.77905 13.271C7.07338 13.1157 7.53621 12.7209 7.79635 12.6592C8.13786 12.5782 8.99496 12.6231 9.38871 12.6231C9.68983 12.6232 10.737 12.5373 10.9012 12.7352C11.1847 13.0769 11.5564 13.3003 12.0149 13.139C12.9409 12.8134 12.896 11.6236 11.931 11.3938C11.3177 11.2477 11.1888 11.5902 10.8473 11.8663C10.7318 11.9596 9.47702 11.9079 9.23909 11.9079C9.93592 11.2913 13.1139 10.5478 14.7902 9.13945C15.3092 8.62785 15.7376 8.01661 16.3103 7.45508C16.9029 6.87392 17.3914 6.5683 18.0909 6.13542C19.137 5.48813 21.7017 4.65195 22.9037 4.85469C22.901 4.85868 21.568 5.64836 21.3789 5.78861C20.891 6.15061 20.4792 6.52508 20.0411 6.93619C19.4518 7.48911 18.2184 9.09776 18.0036 9.84906L19.8579 10.9808C19.5877 11.4166 17.9811 12.1702 17.4496 12.3662C17.0943 12.4972 17.0893 13.3357 17.0894 13.6926C17.0896 14.2409 17.1727 14.7935 17.2298 15.3362C17.3362 16.3471 17.7192 17.1621 18.1066 18.0758C18.2948 18.5196 19.1833 20.0266 19.5577 20.2536C21.2316 22.026 22.4953 22.889 24.8644 23.6023C27.7231 24.463 31.8998 23.7369 33.0414 24.0579L29.9253 35.0401L31.1022 35.3642L34.6198 22.9059C30.6635 22.7097 27.8425 23.5311 23.876 22.0692C22.6655 21.6169 20.6274 20.0299 19.9339 18.8686C19.678 18.44 19.2333 17.7892 19.0487 17.3545C18.5001 16.0626 18.2221 14.6313 18.3423 13.2198C18.5961 13.0745 18.9449 12.9453 19.2307 12.789C19.5223 12.6295 19.798 12.4476 20.0746 12.2601C20.3578 12.0681 21.456 11.2014 21.616 10.9996L19.6023 9.43413C19.6493 8.99778 20.8132 7.76956 21.167 7.43376C21.7799 6.85192 22.4843 6.37107 23.2299 5.97682C23.8852 5.63026 25.3012 5.35603 25.237 4.51435C25.1608 3.51612 23.2468 3.68372 22.5498 3.7197C19.7232 3.86557 17.1752 4.96434 15.1705 6.94599C14.5605 7.54896 14.1122 8.34677 13.4081 8.78287C12.0573 9.61959 10.0069 10.2419 8.50865 10.9609C7.66523 11.3657 7.02653 11.7483 6.24723 12.2585C5.60769 12.6772 4.36245 13.0961 4.17393 13.7918C3.99803 14.441 4.2153 16.2776 4.45364 16.9391C4.80765 17.9216 5.41907 18.2094 6.20639 18.7875C6.9064 19.3015 7.54069 19.823 8.1472 20.4475C8.45161 20.761 8.71301 21.0788 8.94525 21.4499C9.05045 21.618 9.53792 22.4856 9.64044 22.5362C9.5146 20.7749 13.5037 17.6039 14.4876 20.2328C14.7485 21.1829 15.3368 22.7234 15.4638 23.6235ZM20.5797 34.9448L21.7903 34.7368L21.771 30.5164L21.8105 30.4991L24.919 33.167L24.938 33.1849L28.106 30.484L28.1359 30.5019L28.1291 34.723L29.3302 34.9454L29.3277 27.9921L29.2887 27.9638L24.9318 31.6826L20.635 27.9951L20.5805 28.032L20.5797 34.9448Z" fill="url(#paint0_linear_2005_5958)"/>
<path fill-rule="evenodd" clip-rule="evenodd" d="M39.8664 40.3311L39.8967 40.2873C30.1753 32.3961 20.1084 32.2776 10.0104 40.2873L10.0407 40.3311C20.1085 34.6022 29.7966 34.6011 39.8664 40.3311Z" fill="url(#paint1_linear_2005_5958)"/>
<defs>
<linearGradient id="paint0_linear_2005_5958" x1="6.48905" y1="28.0571" x2="32.2406" y2="11.0189" gradientUnits="userSpaceOnUse">
<stop stop-color="#F05736"/>
<stop offset="1" stop-color="#EE3C38"/>
</linearGradient>
<linearGradient id="paint1_linear_2005_5958" x1="24.7045" y1="34.1266" x2="25.2026" y2="40.529" gradientUnits="userSpaceOnUse">
<stop stop-color="#92C84A"/>
<stop offset="1" stop-color="#157D4A"/>
</linearGradient>
</defs>
</svg>
