<svg width="32" height="32" viewBox="0 0 32 32" fill="none" xmlns="http://www.w3.org/2000/svg">
<path fill-rule="evenodd" clip-rule="evenodd" d="M23.339 12.3531L22.8203 11.453C22.3815 10.6914 21.409 10.4287 20.6464 10.8657C20.2834 11.0796 19.8502 11.1402 19.4424 11.0343C19.0345 10.9285 18.6856 10.6647 18.4725 10.3012C18.3354 10.0702 18.2617 9.8071 18.2589 9.53847C18.2713 9.10779 18.1088 8.69044 17.8085 8.38149C17.5081 8.07255 17.0955 7.89832 16.6647 7.8985H15.6197C15.1976 7.8985 14.7929 8.0667 14.4951 8.36589C14.1973 8.66508 14.0311 9.0706 14.0331 9.4927C14.0206 10.3642 13.3105 11.0641 12.4389 11.064C12.1703 11.0612 11.9071 10.9876 11.6761 10.8504C10.9135 10.4134 9.94103 10.6762 9.50222 11.4378L8.94539 12.3531C8.50711 13.1138 8.76627 14.0856 9.5251 14.527C10.0184 14.8118 10.3222 15.3381 10.3222 15.9077C10.3222 16.4772 10.0184 17.0035 9.5251 17.2883C8.76723 17.7267 8.50779 18.6962 8.94539 19.4546L9.47171 20.3623C9.67731 20.7333 10.0223 21.007 10.4303 21.123C10.8383 21.2389 11.2756 21.1875 11.6456 20.9801C12.0093 20.7679 12.4428 20.7097 12.8496 20.8186C13.2563 20.9275 13.6028 21.1943 13.8119 21.5598C13.949 21.7908 14.0227 22.054 14.0255 22.3226C14.0255 23.2031 14.7392 23.9168 15.6197 23.9168H16.6647C17.5422 23.9168 18.2547 23.2077 18.2589 22.3302C18.2568 21.9068 18.4242 21.5001 18.7236 21.2007C19.023 20.9013 19.4297 20.734 19.8531 20.736C20.1211 20.7432 20.3831 20.8166 20.6159 20.9496C21.3765 21.3879 22.3484 21.1287 22.7898 20.3699L23.339 19.4546C23.5516 19.0897 23.6099 18.6551 23.5011 18.2471C23.3923 17.8391 23.1253 17.4912 22.7593 17.2807C22.3932 17.0701 22.1263 16.7223 22.0174 16.3142C21.9086 15.9062 21.967 15.4716 22.1796 15.1067C22.3178 14.8654 22.5179 14.6653 22.7593 14.527C23.5136 14.0858 23.7721 13.1197 23.339 12.3607V12.3531Z" stroke="#667085" stroke-width="1.5" stroke-linecap="round" stroke-linejoin="round"/>
<path d="M16.1461 18.1045C17.3593 18.1045 18.3429 17.121 18.3429 15.9077C18.3429 14.6945 17.3593 13.7109 16.1461 13.7109C14.9328 13.7109 13.9493 14.6945 13.9493 15.9077C13.9493 17.121 14.9328 18.1045 16.1461 18.1045Z" stroke="#667085" stroke-width="1.5" stroke-linecap="round" stroke-linejoin="round"/>
</svg>
