<svg width="14" height="15" viewBox="0 0 14 15" fill="none" xmlns="http://www.w3.org/2000/svg">
<g clip-path="url(#clip0_2024_6706)">
<rect width="14" height="14" transform="translate(-0.00195312 0.5)" fill="white" fill-opacity="0.01"/>
<g clip-path="url(#clip1_2024_6706)">
<path d="M10.9348 0.498688C11.0508 0.498688 11.1623 0.545547 11.2444 0.627594C11.3263 0.709527 11.3722 0.820332 11.3723 0.936188V1.37369H12.2473C12.7114 1.37369 13.1574 1.55819 13.4856 1.88638C13.8137 2.21446 13.9972 2.65974 13.9973 3.12369V12.7487C13.9973 13.2128 13.8138 13.6588 13.4856 13.987C13.1574 14.3152 12.7114 14.4987 12.2473 14.4987H1.74731C1.28336 14.4986 0.838084 14.315 0.51001 13.987C0.181821 13.6588 -0.00268555 13.2128 -0.00268555 12.7487V3.12369C-0.00255765 2.65973 0.181935 2.21446 0.51001 1.88638C0.838085 1.55831 1.28336 1.37382 1.74731 1.37369H2.62231V0.936188C2.62244 0.82033 2.66929 0.709527 2.75122 0.627594C2.83315 0.545661 2.94396 0.498815 3.05981 0.498688C3.17585 0.498688 3.28734 0.545547 3.36938 0.627594C3.45131 0.709527 3.49719 0.820332 3.49731 0.936188V1.37369H10.4973V0.936188C10.4974 0.82033 10.5443 0.709527 10.6262 0.627594C10.7082 0.545661 10.819 0.498815 10.9348 0.498688ZM0.872314 12.7487C0.872314 12.9808 0.965056 13.2037 1.12915 13.3678C1.29313 13.5318 1.51543 13.6236 1.74731 13.6237H12.2473C12.4794 13.6237 12.7024 13.5319 12.8665 13.3678C13.0305 13.2037 13.1223 12.9808 13.1223 12.7487V3.99869H0.872314V12.7487ZM9.18481 6.62369C9.24231 6.62369 9.29967 6.63487 9.35278 6.65689C9.40594 6.67895 9.45472 6.71087 9.49536 6.75162C9.5361 6.79226 9.56803 6.84105 9.59009 6.8942C9.61204 6.94716 9.62323 7.00386 9.62329 7.06119C9.62329 7.11868 9.61211 7.17604 9.59009 7.22916C9.56803 7.28231 9.5361 7.33109 9.49536 7.37173L6.87036 9.99673C6.82972 10.0375 6.78094 10.0694 6.72778 10.0915C6.67467 10.1135 6.61731 10.1247 6.55981 10.1247C6.50248 10.1246 6.44578 10.1134 6.39282 10.0915C6.33967 10.0694 6.29088 10.0375 6.25024 9.99673L4.93774 8.68423C4.89707 8.64356 4.86503 8.5948 4.84302 8.54166C4.82105 8.48855 4.80981 8.43116 4.80981 8.37369C4.80988 8.31638 4.82111 8.25965 4.84302 8.2067C4.86503 8.15355 4.89707 8.10479 4.93774 8.06412C5.01978 7.98208 5.13131 7.93632 5.24731 7.93619C5.30478 7.93619 5.36218 7.94742 5.41528 7.96939C5.46843 7.99141 5.51718 8.02344 5.55786 8.06412L6.55981 9.06802L8.87524 6.75162C8.91588 6.71087 8.96467 6.67895 9.01782 6.65689C9.07079 6.63494 9.12748 6.62375 9.18481 6.62369Z" fill="#6C757D"/>
</g>
</g>
<defs>
<clipPath id="clip0_2024_6706">
<rect width="14" height="14" fill="white" transform="translate(-0.00195312 0.5)"/>
</clipPath>
<clipPath id="clip1_2024_6706">
<rect width="14" height="14" fill="white" transform="translate(-0.00195312 0.5)"/>
</clipPath>
</defs>
</svg>
