<svg width="18" height="15" viewBox="0 0 18 15" fill="none" xmlns="http://www.w3.org/2000/svg">
<path d="M15.0309 11.1428C16.9445 9.43506 18.002 7.50006 18.002 7.50006C18.002 7.50006 14.627 1.31256 9.00201 1.31256C7.92156 1.31628 6.85333 1.54141 5.86326 1.97406L6.72951 2.84143C7.45788 2.57611 8.22683 2.43945 9.00201 2.43756C11.387 2.43756 13.3659 3.75156 14.816 5.20168C15.5139 5.90333 16.1396 6.67333 16.6835 7.50006C16.6183 7.59793 16.5463 7.70593 16.4641 7.82406C16.0873 8.36406 15.5304 9.08406 14.816 9.79843C14.6304 9.98406 14.4369 10.1674 14.2344 10.3452L15.0309 11.1428Z" fill="#667085"/>
<path d="M12.7111 8.82306C12.9622 8.12088 13.0087 7.36185 12.8452 6.63428C12.6817 5.90671 12.315 5.24052 11.7877 4.71323C11.2604 4.18593 10.5942 3.81921 9.86667 3.65574C9.1391 3.49227 8.38007 3.53876 7.67789 3.78981L8.60376 4.71568C9.03611 4.6538 9.47693 4.69346 9.89129 4.83152C10.3057 4.96957 10.6822 5.20224 10.991 5.51107C11.2998 5.8199 11.5325 6.19642 11.6706 6.61078C11.8086 7.02514 11.8483 7.46596 11.7864 7.89831L12.7111 8.82306ZM9.40026 10.2844L10.325 11.2092C9.62284 11.4602 8.8638 11.5067 8.13624 11.3432C7.40867 11.1798 6.74248 10.8131 6.21519 10.2858C5.68789 9.75847 5.32117 9.09228 5.1577 8.36471C4.99422 7.63714 5.04072 6.87811 5.29176 6.17593L6.21764 7.10181C6.15576 7.53416 6.19541 7.97498 6.33347 8.38934C6.47153 8.8037 6.70419 9.18021 7.01303 9.48904C7.32186 9.79788 7.69837 10.0305 8.11273 10.1686C8.5271 10.3067 8.96792 10.3463 9.40026 10.2844Z" fill="#667085"/>
<path d="M3.77076 4.65381C3.56826 4.83381 3.37364 5.01606 3.18801 5.20168C2.49012 5.90333 1.86447 6.67333 1.32051 7.50006L1.53989 7.82406C1.91676 8.36406 2.47364 9.08406 3.18801 9.79843C4.63814 11.2486 6.61814 12.5626 9.00201 12.5626C9.80751 12.5626 10.5658 12.4129 11.2745 12.1576L12.1408 13.0261C11.1507 13.4587 10.0825 13.6838 9.00201 13.6876C3.37701 13.6876 0.00201416 7.50006 0.00201416 7.50006C0.00201416 7.50006 1.05839 5.56393 2.97314 3.85731L3.76964 4.65493L3.77076 4.65381ZM15.3538 14.6483L1.85376 1.14831L2.65026 0.351807L16.1503 13.8518L15.3538 14.6483Z" fill="#667085"/>
</svg>
