<svg width="14" height="15" viewBox="0 0 14 15" fill="none" xmlns="http://www.w3.org/2000/svg">
<g clip-path="url(#clip0_2038_6259)">
<path d="M10.6278 0.627555C10.6685 0.586813 10.7167 0.554488 10.7699 0.532432C10.823 0.510376 10.88 0.499023 10.9376 0.499023C10.9951 0.499023 11.0521 0.510376 11.1053 0.532432C11.1584 0.554488 11.2067 0.586813 11.2473 0.627555L13.8723 3.25256C13.9131 3.2932 13.9454 3.34147 13.9674 3.39463C13.9895 3.44778 14.0009 3.50476 14.0009 3.56231C14.0009 3.61985 13.9895 3.67683 13.9674 3.72999C13.9454 3.78314 13.9131 3.83142 13.8723 3.87206L5.12232 12.6221C5.08034 12.6637 5.03033 12.6965 4.97532 12.7183L0.600324 14.4683C0.520819 14.5001 0.433721 14.5079 0.349829 14.4907C0.265937 14.4735 0.188941 14.4321 0.128385 14.3715C0.0678294 14.3109 0.0263776 14.2339 0.00916858 14.1501C-0.00804044 14.0662 -0.000249879 13.9791 0.0315745 13.8996L1.78157 9.52456C1.80339 9.46955 1.83613 9.41954 1.87782 9.37756L10.6278 0.627555V0.627555ZM9.8062 2.68731L11.8126 4.69368L12.9439 3.56231L10.9376 1.55593L9.8062 2.68731ZM11.1939 5.31231L9.18757 3.30593L3.50007 8.99343V9.24981H3.93757C4.05361 9.24981 4.16489 9.2959 4.24693 9.37795C4.32898 9.45999 4.37507 9.57127 4.37507 9.68731V10.1248H4.81257C4.92861 10.1248 5.03989 10.1709 5.12193 10.2529C5.20398 10.335 5.25007 10.4463 5.25007 10.5623V10.9998H5.50645L11.1939 5.31231V5.31231ZM2.65307 9.84043L2.56032 9.93318L1.22332 13.2766L4.5667 11.9396L4.65945 11.8468C4.57599 11.8156 4.50404 11.7597 4.45322 11.6865C4.40241 11.6133 4.37514 11.5264 4.37507 11.4373V10.9998H3.93757C3.82154 10.9998 3.71026 10.9537 3.62822 10.8717C3.54617 10.7896 3.50007 10.6783 3.50007 10.5623V10.1248H3.06257C2.97348 10.1247 2.88653 10.0975 2.81335 10.0467C2.74018 9.99584 2.68426 9.92389 2.65307 9.84043V9.84043Z" fill="#212529"/>
</g>
<defs>
<clipPath id="clip0_2038_6259">
<rect width="14" height="14" fill="white" transform="translate(0 0.5)"/>
</clipPath>
</defs>
</svg>
