<svg width="8" height="7" viewBox="0 0 8 7" fill="none" xmlns="http://www.w3.org/2000/svg">
<path fill-rule="evenodd" clip-rule="evenodd" d="M-0.00390625 3.49999C-0.00390625 3.36738 0.0487723 3.24021 0.14254 3.14644C0.236309 3.05267 0.363486 2.99999 0.496094 2.99999H6.28909L4.14209 0.853991C4.04821 0.760104 3.99546 0.632767 3.99546 0.499991C3.99546 0.367215 4.04821 0.239877 4.14209 0.145991C4.23598 0.0521042 4.36332 -0.000640869 4.49609 -0.000640869C4.62887 -0.000640869 4.75621 0.0521042 4.85009 0.145991L7.85009 3.14599C7.89666 3.19244 7.9336 3.24761 7.95881 3.30836C7.98401 3.3691 7.99699 3.43422 7.99699 3.49999C7.99699 3.56576 7.98401 3.63088 7.95881 3.69162C7.9336 3.75237 7.89666 3.80755 7.85009 3.85399L4.85009 6.85399C4.75621 6.94788 4.62887 7.00062 4.49609 7.00062C4.36332 7.00062 4.23598 6.94788 4.14209 6.85399C4.04821 6.7601 3.99546 6.63277 3.99546 6.49999C3.99546 6.36722 4.04821 6.23988 4.14209 6.14599L6.28909 3.99999H0.496094C0.363486 3.99999 0.236309 3.94731 0.14254 3.85354C0.0487723 3.75978 -0.00390625 3.6326 -0.00390625 3.49999Z" fill="#CED4DA"/>
</svg>
