<svg width="17" height="15" viewBox="0 0 17 15" fill="none" xmlns="http://www.w3.org/2000/svg">
<path d="M1.81451 7.5C1.81451 4.08274 4.58475 1.3125 8.00201 1.3125C9.12996 1.3125 10.1858 1.6138 11.0954 2.13993C11.3643 2.29549 11.7084 2.2036 11.8639 1.93469C12.0195 1.66578 11.9276 1.32168 11.6587 1.16613C10.5825 0.543611 9.333 0.1875 8.00201 0.1875C3.96343 0.1875 0.689514 3.46142 0.689514 7.5C0.689514 11.5386 3.96343 14.8125 8.00201 14.8125C12.0406 14.8125 15.3145 11.5386 15.3145 7.5C15.3145 7.18934 15.0627 6.9375 14.752 6.9375C14.4414 6.9375 14.1895 7.18934 14.1895 7.5C14.1895 10.9173 11.4193 13.6875 8.00201 13.6875C4.58475 13.6875 1.81451 10.9173 1.81451 7.5Z" fill="#12B76A"/>
<path d="M16.2748 2.27275C16.4944 2.05308 16.4944 1.69692 16.2748 1.47725C16.0551 1.25758 15.6989 1.25758 15.4793 1.47725L8.00201 8.9545L5.02476 5.97725C4.80509 5.75758 4.44894 5.75758 4.22927 5.97725C4.0096 6.19692 4.0096 6.55308 4.22927 6.77275L7.60427 10.1477C7.82394 10.3674 8.18009 10.3674 8.39976 10.1477L16.2748 2.27275Z" fill="#12B76A"/>
</svg>
