<svg width="14" height="15" viewBox="0 0 14 15" fill="none" xmlns="http://www.w3.org/2000/svg">
<path d="M1.62219 13.4973L12.9972 2.12231C13.0379 2.08164 13.0701 2.03335 13.0921 1.9802C13.1142 1.92705 13.1255 1.87009 13.1255 1.81256C13.1255 1.75504 13.1142 1.69808 13.0921 1.64493C13.0701 1.59178 13.0379 1.54349 12.9972 1.50281C12.9565 1.46214 12.9082 1.42987 12.8551 1.40786C12.8019 1.38584 12.745 1.37451 12.6874 1.37451C12.6299 1.37451 12.573 1.38584 12.5198 1.40786C12.4667 1.42987 12.4184 1.46214 12.3777 1.50281L1.00269 12.8778C0.962015 12.9185 0.929749 12.9668 0.907734 13.0199C0.88572 13.0731 0.87439 13.13 0.87439 13.1876C0.87439 13.2451 0.88572 13.3021 0.907734 13.3552C0.929749 13.4083 0.962015 13.4566 1.00269 13.4973C1.08484 13.5795 1.19626 13.6256 1.31244 13.6256C1.36997 13.6256 1.42693 13.6143 1.48008 13.5923C1.53322 13.5703 1.58152 13.538 1.62219 13.4973V13.4973ZM3.49994 1.37506C3.61597 1.37506 3.72725 1.42116 3.8093 1.50321C3.89135 1.58525 3.93744 1.69653 3.93744 1.81256V3.56256H5.68744C5.80347 3.56256 5.91475 3.60866 5.9968 3.69071C6.07885 3.77275 6.12494 3.88403 6.12494 4.00006C6.12494 4.1161 6.07885 4.22738 5.9968 4.30942C5.91475 4.39147 5.80347 4.43756 5.68744 4.43756H3.93744V6.18756C3.93744 6.3036 3.89135 6.41488 3.8093 6.49692C3.72725 6.57897 3.61597 6.62506 3.49994 6.62506C3.38391 6.62506 3.27263 6.57897 3.19058 6.49692C3.10854 6.41488 3.06244 6.3036 3.06244 6.18756V4.43756H1.31244C1.19641 4.43756 1.08513 4.39147 1.00308 4.30942C0.921036 4.22738 0.874942 4.1161 0.874942 4.00006C0.874942 3.88403 0.921036 3.77275 1.00308 3.69071C1.08513 3.60866 1.19641 3.56256 1.31244 3.56256H3.06244V1.81256C3.06244 1.69653 3.10854 1.58525 3.19058 1.50321C3.27263 1.42116 3.38391 1.37506 3.49994 1.37506ZM7.87494 11.0001C7.87494 10.884 7.92103 10.7728 8.00308 10.6907C8.08513 10.6087 8.19641 10.5626 8.31244 10.5626H12.6874C12.8035 10.5626 12.9148 10.6087 12.9968 10.6907C13.0788 10.7728 13.1249 10.884 13.1249 11.0001C13.1249 11.1161 13.0788 11.2274 12.9968 11.3094C12.9148 11.3915 12.8035 11.4376 12.6874 11.4376H8.31244C8.19641 11.4376 8.08513 11.3915 8.00308 11.3094C7.92103 11.2274 7.87494 11.1161 7.87494 11.0001Z" fill="#212529"/>
</svg>
