<svg width="11" height="11" viewBox="0 0 11 11" fill="none" xmlns="http://www.w3.org/2000/svg">
<path d="M4.9389 0.249023C5.13769 0.249066 5.32858 0.32823 5.46918 0.46875L10.7192 5.71875C10.8597 5.85935 10.9389 6.05022 10.9389 6.24902C10.9389 6.4479 10.8598 6.63865 10.7192 6.7793L7.27972 10.2188C7.13908 10.3594 6.94832 10.4385 6.74945 10.4385C6.55065 10.4384 6.35978 10.3593 6.21918 10.2188L0.969177 4.96875C0.828657 4.82815 0.749493 4.63727 0.749451 4.43848V0.999023C0.749504 0.800184 0.828573 0.609354 0.969177 0.46875C1.10978 0.328146 1.30061 0.249077 1.49945 0.249023H4.9389ZM1.49945 4.43848L6.74945 9.68848L10.1889 6.24902L4.9389 0.999023H1.49945V4.43848ZM3.37445 1.74902C3.67282 1.74902 3.95937 1.86812 4.17035 2.0791C4.3811 2.29 4.4994 2.57586 4.49945 2.87402C4.49945 3.17239 4.38133 3.45894 4.17035 3.66992C3.95937 3.8809 3.67282 3.99902 3.37445 3.99902C3.07629 3.99897 2.79043 3.88067 2.57953 3.66992C2.36855 3.45894 2.24945 3.17239 2.24945 2.87402C2.2495 2.57573 2.3686 2.29003 2.57953 2.0791C2.79046 1.86817 3.07616 1.74908 3.37445 1.74902ZM3.37445 2.49902C3.27507 2.49908 3.18008 2.5391 3.1098 2.60938C3.03952 2.67965 2.9995 2.77464 2.99945 2.87402C2.99945 2.97348 3.03948 3.06932 3.1098 3.13965C3.18005 3.20975 3.2752 3.24897 3.37445 3.24902C3.47391 3.24902 3.56975 3.20997 3.64008 3.13965C3.7104 3.06932 3.74945 2.97348 3.74945 2.87402C3.7494 2.77478 3.71018 2.67963 3.64008 2.60938C3.56975 2.53905 3.47391 2.49902 3.37445 2.49902Z" fill="#212529"/>
</svg>
