<svg width="24" height="24" viewBox="0 0 24 24" fill="none" xmlns="http://www.w3.org/2000/svg">
<rect x="0.5" y="0.5" width="23" height="23" rx="5.5" fill="white" fill-opacity="0.01"/>
<rect x="0.5" y="0.5" width="23" height="23" rx="5.5" stroke="#CED4DA"/>
<path d="M13.828 4.72199C13.8937 4.72187 13.9588 4.7347 14.0195 4.75975C14.0803 4.78481 14.1355 4.82158 14.182 4.86799L19.132 9.81799C19.2257 9.91175 19.2784 10.0389 19.2784 10.1715C19.2784 10.3041 19.2257 10.4312 19.132 10.525C18.652 11.005 18.06 11.113 17.629 11.113C17.452 11.113 17.294 11.095 17.169 11.074L14.035 14.208C14.1175 14.5404 14.171 14.8793 14.195 15.221C14.241 15.923 14.163 16.908 13.475 17.596C13.3812 17.6897 13.2541 17.7424 13.1215 17.7424C12.9889 17.7424 12.8618 17.6897 12.768 17.596L9.939 14.768L6.757 17.95C6.562 18.145 5.538 18.852 5.343 18.657C5.148 18.462 5.855 17.437 6.05 17.243L9.232 14.061L6.404 11.232C6.31027 11.1382 6.25761 11.0111 6.25761 10.8785C6.25761 10.7459 6.31027 10.6187 6.404 10.525C7.092 9.83699 8.077 9.75799 8.779 9.80499C9.12066 9.82893 9.4596 9.88246 9.792 9.96499L12.926 6.83199C12.8998 6.6797 12.8865 6.5255 12.886 6.37099C12.886 5.94099 12.994 5.34899 13.475 4.86799C13.5687 4.77452 13.6957 4.72201 13.828 4.72199Z" fill="#212529"/>
</svg>
